<svg width="290" height="39" viewBox="0 0 290 39" fill="none" xmlns="http://www.w3.org/2000/svg">
<path d="M274.273 37.5L267.606 0.511475H274.593L278.566 25.6271L282.265 0.511475H289.663L282.904 37.5H274.273Z" fill="#353535"/>
<path d="M245.265 37.5V0.511475H261.887V6.08259H253.439V15.2612H259.877V20.9237H253.439V31.9745H261.978V37.5H245.265Z" fill="#353535"/>
<path d="M214.854 37.5V0.511475H224.216C227.443 0.511475 229.954 0.92246 231.75 1.74443C233.547 2.53595 234.81 3.79934 235.541 5.53461C236.271 7.23943 236.637 9.46178 236.637 12.2017V25.6271C236.637 28.3975 236.271 30.6655 235.541 32.4312C234.81 34.1665 233.547 35.4451 231.75 36.267C229.985 37.089 227.504 37.5 224.307 37.5H214.854ZM223.029 31.8375H224.307C225.555 31.8375 226.453 31.6549 227.001 31.2896C227.549 30.9243 227.884 30.3763 228.006 29.6456C228.158 28.915 228.234 28.0017 228.234 26.9057V10.7861C228.234 9.69011 228.143 8.80725 227.96 8.1375C227.808 7.46775 227.458 6.98066 226.91 6.67623C226.362 6.3718 225.479 6.21958 224.261 6.21958H223.029V31.8375Z" fill="#353535"/>
<path d="M195.039 38.048C192.269 38.048 190.077 37.5609 188.463 36.5867C186.85 35.6125 185.693 34.2121 184.993 32.3855C184.292 30.5589 183.942 28.3822 183.942 25.8554V12.1103C183.942 9.5531 184.292 7.37641 184.993 5.58026C185.693 3.78411 186.85 2.41417 188.463 1.47043C190.077 0.496247 192.269 0.00915527 195.039 0.00915527C197.84 0.00915527 200.047 0.496247 201.66 1.47043C203.304 2.41417 204.476 3.78411 205.177 5.58026C205.877 7.37641 206.227 9.5531 206.227 12.1103V25.8554C206.227 28.3822 205.877 30.5589 205.177 32.3855C204.476 34.2121 203.304 35.6125 201.66 36.5867C200.047 37.5609 197.84 38.048 195.039 38.048ZM195.039 32.2485C195.891 32.2485 196.515 32.0354 196.911 31.6092C197.307 31.183 197.566 30.635 197.688 29.9653C197.809 29.2955 197.87 28.6106 197.87 27.9104V10.1011C197.87 9.37045 197.809 8.68547 197.688 8.04617C197.566 7.37641 197.307 6.82844 196.911 6.40223C196.515 5.97603 195.891 5.76292 195.039 5.76292C194.247 5.76292 193.654 5.97603 193.258 6.40223C192.862 6.82844 192.603 7.37641 192.482 8.04617C192.36 8.68547 192.299 9.37045 192.299 10.1011V27.9104C192.299 28.6106 192.345 29.2955 192.436 29.9653C192.558 30.635 192.801 31.183 193.167 31.6092C193.562 32.0354 194.187 32.2485 195.039 32.2485Z" fill="#353535"/>
<path d="M154.034 37.5V0.511475H163.395C166.622 0.511475 169.134 0.92246 170.93 1.74443C172.726 2.53595 173.99 3.79934 174.72 5.53461C175.451 7.23943 175.816 9.46178 175.816 12.2017V25.6271C175.816 28.3975 175.451 30.6655 174.72 32.4312C173.99 34.1665 172.726 35.4451 170.93 36.267C169.164 37.089 166.683 37.5 163.487 37.5H154.034ZM162.208 31.8375H163.487C164.735 31.8375 165.633 31.6549 166.181 31.2896C166.729 30.9243 167.064 30.3763 167.186 29.6456C167.338 28.915 167.414 28.0017 167.414 26.9057V10.7861C167.414 9.69011 167.323 8.80725 167.14 8.1375C166.988 7.46775 166.638 6.98066 166.09 6.67623C165.542 6.3718 164.659 6.21958 163.441 6.21958H162.208V31.8375Z" fill="#353535"/>
<path d="M130.136 37.5V0.511475H138.31V31.9745H146.803V37.5H130.136Z" fill="#353535"/>
<path d="M99.5498 37.5L106.537 0.511475H115.852L122.748 37.5H115.213L113.98 29.6913H108.546L107.267 37.5H99.5498ZM109.276 24.8052H113.204L111.24 10.3751L109.276 24.8052Z" fill="#353535"/>
<path d="M82.326 37.5V6.5849H76.7549V0.511475H96.0711V6.5849H90.5457V37.5H82.326Z" fill="#353535"/>
<path d="M50.3691 37.5L57.3559 0.511475H66.6715L73.5669 37.5H66.0322L64.7992 29.6913H59.3651L58.0865 37.5H50.3691ZM60.0957 24.8052H64.0229L62.0593 10.3751L60.0957 24.8052Z" fill="#353535"/>
<path d="M22.5879 37.5V0.511475H30.7619V15.6265L36.9723 0.511475H44.9637L38.1139 17.2248L45.2833 37.5H36.9723L31.6295 21.152L30.7619 22.6133V37.5H22.5879Z" fill="#353535"/>
<path d="M0.46582 32.9335V26.4948L9.3248 20.1017L0.46582 13.7999V7.36121L14.6219 17.2705V23.0242L0.46582 32.9335Z" fill="#43F79F"/>
</svg>
